<svg xmlns="http://www.w3.org/2000/svg" enable-background="new 0 0 512 512" viewBox="0 0 512 512"><path fill="#020202" d="M256,16C123.5,16,16,123.5,16,256c0,132.5,107.5,240,240,240s240-107.5,240-240C496,123.5,388.5,16,256,16z
	 M376.3,192.9c-0.1,0.1-0.1,0.1-0.2,0.2c0.1,1.5,0.1,3,0.2,4.5c0,1.6,0.1,3.2,0.1,4.8c0,98.3-79.7,177.9-177.9,177.9
	c-33.8,0-65.3-9.4-92.2-25.7c0,0,51,4.3,85.9-28.3c0,0-41.6-5.4-57.3-44c0,0,18.1,3,28.9,0c0,0-50-20.5-48.8-62.1
	c0,0,17.5,7.2,25.9,7.2c0,0-44.6-30.8-18.1-88c0,0,34.4,66.3,128.4,66.9l0.1-0.1c-0.7-3.7-1-7.5-1-11.4c0-34.8,28.2-63,63-63
	c17.8,0,33.9,7.4,45.3,19.2l0.5-0.2c0,0,3.7-1,8.8-2.5c8.6-2.5,21.2-6.3,26.1-9c0,0-5.1,19.3-20.8,30.3c-0.5,0.4-1,0.7-1.5,1
	c0,0,0.6,0,1.7-0.1c4.8-0.2,18.7-1.5,31.5-8.4C404.6,162.8,391.4,180.4,376.3,192.9z"/></svg>