<?xml version="1.0" encoding="utf-8"?>
<!-- Generator: Adobe Illustrator 24.0.3, SVG Export Plug-In . SVG Version: 6.00 Build 0)  -->
<svg version="1.1"
	 id="Слой_1" inkscape:version="0.91 r13725" sodipodi:docname="YouTube_social_white_squircle_(2017).svg" xmlns:cc="http://creativecommons.org/ns#" xmlns:dc="http://purl.org/dc/elements/1.1/" xmlns:inkscape="http://www.inkscape.org/namespaces/inkscape" xmlns:rdf="http://www.w3.org/1999/02/22-rdf-syntax-ns#" xmlns:sodipodi="http://sodipodi.sourceforge.net/DTD/sodipodi-0.dtd" xmlns:svg="http://www.w3.org/2000/svg"
	 xmlns="http://www.w3.org/2000/svg" xmlns:xlink="http://www.w3.org/1999/xlink" x="0px" y="0px" viewBox="0 0 300 300"
	 style="enable-background:new 0 0 300 300;" xml:space="preserve">
<style type="text/css">
	.st0{fill:#F1615F;}
	.st1{fill:#FFFFFF;}
</style>
<sodipodi:namedview  bordercolor="#666666" borderopacity="1" fit-margin-bottom="0" fit-margin-left="0" fit-margin-right="0" fit-margin-top="0" gridtolerance="10" guidetolerance="10" id="namedview13" inkscape:current-layer="Слой_1" inkscape:cx="140.1615" inkscape:cy="129.72071" inkscape:pageopacity="0" inkscape:pageshadow="2" inkscape:window-height="715" inkscape:window-maximized="1" inkscape:window-width="1366" inkscape:window-x="-8" inkscape:window-y="-8" inkscape:zoom="1.18" objecttolerance="10" pagecolor="#ffffff" showgrid="false">
	</sodipodi:namedview>
<g id="g5360">
	<circle class="st0" cx="150" cy="149.8" r="149.6"/>
	<g id="g4167" transform="matrix(5.9026317,0,0,5.9026317,521.39665,-711.31763)">
		<path id="path4156" inkscape:connector-curvature="0" class="st1" d="M-62.9,133.4c0,0-10.7,0-13.4,0.7c-1.4,0.4-2.6,1.6-3,3.1
			c-0.7,2.7-0.7,8.4-0.7,8.4s0,5.7,0.7,8.4c0.4,1.5,1.6,2.7,3,3.1c2.7,0.7,13.4,0.7,13.4,0.7s10.7,0,13.4-0.7c1.5-0.4,2.6-1.6,3-3.1
			c0.7-2.7,0.7-8.4,0.7-8.4s0-5.7-0.7-8.4c-0.4-1.5-1.5-2.7-3-3C-52.2,133.4-62.9,133.4-62.9,133.4z M-66.3,140.3l8.9,5.2l-8.9,5.2
			V140.3L-66.3,140.3z"/>
	</g>
</g>
</svg>
